<?xml version="1.0" standalone="no"?>
<!DOCTYPE svg PUBLIC "-//W3C//DTD SVG 20010904//EN"
 "http://www.w3.org/TR/2001/REC-SVG-20010904/DTD/svg10.dtd">
<svg version="1.0" xmlns="http://www.w3.org/2000/svg"
 width="700.000000pt" height="700.000000pt" viewBox="0 0 700.000000 700.000000"
 preserveAspectRatio="xMidYMid meet">
<metadata>
Created by potrace 1.11, written by Peter Selinger 2001-2013
</metadata>
<g transform="translate(0.000000,700.000000) scale(0.100000,-0.100000)"
fill="#000000" stroke="none">
<path d="M330 4600 l0 -2316 142 -101 c328 -231 1934 -1372 1943 -1380 6 -5
111 -80 235 -167 124 -88 363 -258 532 -378 169 -120 310 -218 313 -218 4 0
128 87 277 193 148 105 286 204 306 218 21 14 242 171 492 349 250 178 478
340 506 359 28 20 80 57 115 82 35 25 237 169 449 319 212 150 462 328 555
394 94 67 181 129 195 138 14 9 84 59 155 110 l130 94 2 2289 c1 1260 0 2299
-2 2310 -4 20 -12 20 -3175 20 l-3170 0 0 -2315z m5595 1588 c7 -4 10 -646 10
-1762 l0 -1756 -105 -75 c-58 -41 -114 -81 -125 -89 -33 -24 -1066 -757 -1120
-794 -81 -57 -108 -76 -124 -89 -9 -7 -176 -125 -371 -263 -195 -138 -364
-258 -375 -266 -11 -8 -47 -34 -80 -57 -33 -24 -79 -56 -101 -71 l-41 -27
-334 237 c-184 130 -433 307 -554 394 -121 86 -330 234 -465 330 -135 96 -308
219 -385 273 -77 55 -187 133 -245 174 -58 41 -179 128 -270 192 l-165 118 -2
1759 c-1 967 0 1764 1 1769 4 11 4834 14 4851 3z"/>
<path d="M3025 5675 c-14 -22 -85 -148 -385 -685 -106 -190 -206 -370 -223
-400 -16 -30 -35 -64 -42 -75 -6 -11 -55 -96 -107 -190 -52 -93 -107 -192
-123 -220 -121 -218 -217 -389 -245 -440 -18 -33 -70 -125 -115 -205 -45 -80
-97 -172 -115 -205 -18 -33 -73 -131 -122 -219 -48 -87 -88 -160 -88 -162 0
-2 199 -3 442 -2 l443 3 46 80 c25 44 67 121 93 170 27 50 52 95 56 100 4 6
23 39 42 75 41 76 66 121 158 285 37 66 87 156 110 200 24 44 57 105 75 135
18 30 48 84 67 120 20 36 47 85 61 110 13 25 39 72 57 105 18 33 40 74 50 90
9 17 31 55 47 85 80 148 286 516 292 523 6 6 142 -232 316 -552 47 -86 94
-170 200 -361 54 -96 108 -194 121 -218 13 -24 137 -248 275 -498 l252 -454
444 0 443 0 -37 68 c-20 37 -49 89 -65 115 -15 26 -28 49 -28 51 0 2 -22 41
-49 88 -26 46 -63 111 -81 144 -18 32 -130 232 -248 444 -118 212 -226 405
-240 430 -14 25 -79 142 -145 260 -66 118 -128 229 -137 245 -9 17 -29 51 -43
78 -15 26 -39 68 -54 95 -14 26 -76 137 -138 247 -61 110 -123 220 -137 245
-14 25 -34 61 -45 80 -25 45 -105 189 -118 214 -10 18 -29 19 -479 20 -459 1
-469 1 -481 -19z"/>
</g>
</svg>
